<?xml version="1.0" encoding="utf-8"?>
<!-- Generator: Adobe Illustrator 22.1.0, SVG Export Plug-In . SVG Version: 6.00 Build 0)  -->
<svg version="1.1" id="Layer_1" xmlns="http://www.w3.org/2000/svg" xmlns:xlink="http://www.w3.org/1999/xlink" x="0px" y="0px"
	 viewBox="0 0 100 100" style="enable-background:new 0 0 100 100;" xml:space="preserve">
<style type="text/css">
	.st0{fill:#99860C;}
	.st1{fill:#FDCCCC;}
	.st2{fill:#A51111;}
	.st3{fill:#000002;}
	.st4{fill:#FFFFFF;}
	.st5{fill:#920002;}
	.st6{opacity:0.76;fill:#AF1C24;}
</style>
<rect class="st0" width="100" height="100"/>
<g>
	<path class="st1" d="M60.1,23c0,0-0.9,2,0.2,3.5c0,0,1.2-0.1,1.1,4.4c0,0-0.1,3.3,1.3,6.3c0,0,0.7,4.9-2.4,4.8c0,0-2.4-0.5-2.1-3
		c0.2-1.7-2.6,0.4-5-4.5C53,34,53.4,34,52.7,32.5c-0.3-0.7-1.8-0.6-0.7,3c0,0,6.2,12.3-0.7,18l-5.7,6.3c0,0-4.2-14.7-5.3-15.6
		c-2.7-2.3-4.9-6.7-1-14.3c0,0,2.2-5.9,11.9-6.8c0,0,4.8-0.5,5.5-1.5c0,0-0.4-1,1.4,0.8c0.3,0.3,1-0.3,1.7-0.6
		C59.9,21.9,60.5,21.4,60.1,23z"/>
	<g>
		<path class="st2" d="M60.1,23c-0.2,0.6-0.3,1.2-0.3,1.8c0,0.6,0.2,1.2,0.6,1.7l0,0c0.3,0,0.4,0.2,0.5,0.4c0.1,0.2,0.2,0.4,0.3,0.6
			c0.1,0.4,0.2,0.9,0.2,1.4c0.1,0.9,0,1.9,0.1,2.8c0.1,1.9,0.5,3.7,1.3,5.4l0,0l0,0c0.1,1,0.1,2.1-0.1,3.1c-0.1,0.5-0.4,1-0.8,1.4
			c-0.4,0.4-1,0.5-1.5,0.5l0,0l0,0c-0.8-0.2-1.5-0.6-1.9-1.3c-0.2-0.3-0.3-0.7-0.4-1.1c-0.1-0.4,0-0.8,0-1.1c0-0.2-0.4-0.3-0.7-0.4
			c-0.4-0.1-0.7-0.2-1.1-0.3c-0.7-0.3-1.3-0.8-1.9-1.3c-0.5-0.6-0.9-1.2-1.3-1.9L53,34.5c-0.1-0.1-0.1-0.2-0.1-0.3
			c0-0.2,0-0.3-0.1-0.5c-0.1-0.3-0.2-0.6-0.4-1c-0.1-0.3-0.3-0.3-0.4-0.1c-0.1,0.2-0.2,0.5-0.2,0.8c0,0.7,0.2,1.4,0.4,2.1l0-0.1
			c0.7,1.5,1.3,3,1.8,4.6c0.5,1.6,0.8,3.2,0.9,4.8c0.1,1.6,0,3.3-0.5,5c-0.5,1.6-1.5,3.1-2.8,4.2l0.1,0c-1.9,2.1-3.8,4.2-5.7,6.3
			l-0.6,0.6L45.2,60c-0.7-2.6-1.5-5.1-2.3-7.7c-0.4-1.3-0.8-2.5-1.2-3.8c-0.4-1.2-0.8-2.5-1.4-3.7c-0.1-0.1-0.1-0.2-0.2-0.3
			l-0.4-0.4c-0.2-0.2-0.5-0.5-0.7-0.8c-0.4-0.5-0.8-1.1-1.1-1.7c-0.6-1.3-0.9-2.6-0.9-4c0-2.8,1-5.4,2.2-7.7l0,0
			c0.7-1.6,2-2.8,3.3-3.8c1.4-1,2.9-1.7,4.6-2.1c0.8-0.3,1.6-0.4,2.5-0.6l2.5-0.3c0.8-0.1,1.7-0.2,2.5-0.4c0.4-0.1,0.8-0.2,1.2-0.3
			c0.4-0.1,0.8-0.3,1.1-0.6l0,0c0-0.1-0.1-0.2,0-0.3c0.1-0.1,0.2,0,0.2,0c0.1,0.1,0.3,0.2,0.4,0.3c0.2,0.2,0.5,0.5,0.7,0.7
			c0.2,0.3,0.6,0.1,0.9-0.1c0.3-0.2,0.6-0.3,0.9-0.5l0,0c0.1-0.1,0.3-0.1,0.3,0c0.1,0.1,0.1,0.2,0.1,0.4
			C60.2,22.5,60.2,22.8,60.1,23z M60.1,23c0-0.2,0.1-0.5,0.1-0.7c0-0.1,0-0.2-0.1-0.4c-0.1-0.1-0.2-0.1-0.3,0l0,0
			c-0.3,0.2-0.6,0.3-0.8,0.5c-0.1,0.1-0.3,0.2-0.4,0.2c-0.2,0.1-0.4,0-0.5-0.1c-0.2-0.2-0.5-0.5-0.7-0.7c-0.1-0.1-0.3-0.2-0.4-0.3
			c-0.1,0-0.2-0.1-0.2,0c0,0.1,0,0.2,0,0.2l0,0l0,0c-0.3,0.3-0.7,0.5-1.1,0.6c-0.4,0.1-0.8,0.3-1.2,0.3c-0.8,0.2-1.6,0.3-2.5,0.5
			l-2.5,0.3c-0.8,0.2-1.6,0.3-2.4,0.6c-1.6,0.5-3.1,1.2-4.5,2.2c-1.3,1-2.5,2.3-3.1,3.7l0,0l0,0c-1.2,2.4-2.1,4.9-2,7.6
			c0,1.3,0.3,2.6,0.9,3.7c0.3,0.6,0.7,1.1,1.1,1.6c0.2,0.2,0.4,0.5,0.7,0.7l0.4,0.3c0.1,0.1,0.3,0.3,0.4,0.5c1.2,2.5,2,5,2.8,7.6
			c0.8,2.6,1.6,5.1,2.4,7.7l-0.8-0.2c1.9-2.1,3.8-4.2,5.7-6.3l0,0l0,0c1.1-1,2-2.3,2.5-3.7c0.5-1.5,0.6-3,0.5-4.6
			c-0.1-1.6-0.4-3.1-0.8-4.7c-0.4-1.5-0.9-3.1-1.6-4.5l0,0l0,0c-0.2-0.7-0.4-1.5-0.4-2.2c0-0.4,0-0.8,0.3-1.2
			c0.2-0.2,0.5-0.3,0.8-0.2c0.3,0.1,0.5,0.3,0.5,0.5c0.2,0.3,0.3,0.7,0.4,1.1c0,0.2,0.1,0.4,0.1,0.6c0,0.1,0,0.1,0,0.2l0.1,0.2
			c0.3,0.6,0.7,1.2,1.2,1.8c0.5,0.5,1,1,1.7,1.2c0.3,0.1,0.7,0.2,1,0.3c0.2,0,0.4,0.1,0.6,0.2c0.2,0.1,0.4,0.3,0.4,0.5
			c0,0.5-0.1,0.7,0,1.1c0,0.3,0.1,0.7,0.3,1c0.3,0.6,1,1,1.7,1.2l0,0c0.5,0,1-0.1,1.3-0.4c0.4-0.3,0.6-0.8,0.8-1.2
			c0.3-1,0.3-2,0.2-3l0,0c-0.7-1.7-1.1-3.6-1.2-5.5c-0.1-0.9,0-1.9-0.1-2.8c0-0.5-0.1-0.9-0.2-1.4C61,27.4,61,27.2,60.8,27
			c-0.1-0.2-0.3-0.4-0.5-0.4l0,0l0,0c-0.4-0.5-0.5-1.1-0.6-1.7C59.8,24.2,59.9,23.6,60.1,23z"/>
	</g>
</g>
<g>
	<g>
		<g>
			<path class="st3" d="M20.5,68.9H20v2.4c0,0.3-0.1,0.5-0.2,0.7c-0.1,0.1-0.3,0.2-0.5,0.2c-0.2,0-0.4-0.1-0.6-0.2
				c-0.1-0.2-0.2-0.4-0.2-0.7v-5.7c0-0.3,0.1-0.6,0.2-0.7c0.1-0.1,0.4-0.2,0.7-0.2h2.4c0.3,0,0.6,0,0.9,0c0.2,0,0.5,0.1,0.6,0.2
				c0.2,0.1,0.4,0.2,0.6,0.4c0.2,0.2,0.3,0.4,0.4,0.6c0.1,0.2,0.1,0.5,0.1,0.8c0,0.6-0.2,1-0.5,1.3c-0.3,0.3-0.8,0.6-1.4,0.7
				c0.3,0.1,0.5,0.3,0.8,0.6c0.2,0.3,0.5,0.6,0.6,0.9c0.2,0.3,0.3,0.6,0.4,0.8c0.1,0.3,0.2,0.4,0.2,0.5c0,0.1,0,0.2-0.1,0.3
				c-0.1,0.1-0.1,0.2-0.3,0.2s-0.2,0.1-0.4,0.1c-0.2,0-0.3,0-0.4-0.1s-0.2-0.2-0.3-0.3s-0.2-0.3-0.3-0.5l-0.6-1
				c-0.2-0.4-0.4-0.6-0.6-0.8c-0.2-0.2-0.3-0.3-0.5-0.4C21,69,20.8,68.9,20.5,68.9z M21.4,65.8H20v2h1.3c0.4,0,0.7,0,0.9-0.1
				c0.2-0.1,0.4-0.2,0.6-0.3c0.1-0.1,0.2-0.4,0.2-0.6c0-0.2-0.1-0.4-0.2-0.5c-0.1-0.2-0.2-0.3-0.4-0.3
				C22.2,65.9,21.9,65.8,21.4,65.8z"/>
			<g>
				<path class="st4" d="M20.5,68.9l-0.5,0l0,0c0,0.9,0,1.8,0,2.7c0,0.2-0.2,0.5-0.4,0.6c-0.2,0.1-0.5,0.1-0.7,0
					c-0.2-0.1-0.4-0.3-0.5-0.6c-0.1-0.2,0-0.5-0.1-0.7l-0.2-5.4c0-0.3,0-0.6,0.2-0.8c0.2-0.3,0.6-0.4,0.8-0.4l1.4,0l1.4,0
					c0.5,0,0.9,0,1.5,0.2c0.5,0.2,0.9,0.6,1.2,1c0.2,0.5,0.3,1,0.2,1.5c-0.1,0.5-0.3,1-0.8,1.3c-0.4,0.3-0.9,0.5-1.4,0.5l0.1-0.5
					c0.4,0.2,0.7,0.5,0.9,0.9c0.2,0.4,0.5,0.7,0.7,1c0.2,0.4,0.4,0.7,0.4,1.2c-0.1,0.5-0.6,0.7-1,0.6c-0.4-0.2-0.6-0.6-0.8-0.9
					l-0.6-1c-0.2-0.3-0.4-0.7-0.7-1C21.3,69,20.9,68.9,20.5,68.9z M20.5,68.9c0.4,0,0.8,0.1,1.1,0.4c0.3,0.3,0.5,0.6,0.7,1l0.6,1
					c0.2,0.3,0.4,0.7,0.8,0.8c0.4,0.1,0.8-0.2,0.8-0.5c0-0.3-0.3-0.7-0.5-1c-0.2-0.4-0.5-0.6-0.7-0.9c-0.2-0.3-0.5-0.5-0.8-0.7
					l-0.6-0.3l0.7-0.2c0.8-0.2,1.5-0.7,1.6-1.5c0.1-0.8-0.3-1.5-1-1.8c-0.7-0.2-1.7-0.1-2.5-0.2l-1.3,0c-0.4,0-0.5,0.1-0.5,0.6
					L18.6,71c0,0.4-0.1,0.9,0.3,1.1c0.4,0.2,0.9,0,1-0.5c0.1-0.9,0-1.8,0.1-2.7l0,0l0,0L20.5,68.9z"/>
				<path class="st4" d="M21.4,65.8c-0.5,0-0.9,0-1.4,0.1l0.1-0.1l0.2,2L20,67.5c0.5,0,1-0.1,1.4-0.1c0.4-0.1,0.9,0,1.2-0.2
					c0.2-0.2,0.3-0.7,0.1-1.1C22.4,65.8,21.8,65.9,21.4,65.8z M21.4,65.8c0.5,0,1-0.1,1.4,0.3c0.2,0.2,0.3,0.4,0.4,0.7
					c0,0.3,0,0.6-0.2,0.8c-0.2,0.2-0.5,0.4-0.8,0.5c-0.3,0.1-0.5,0.1-0.8,0.1c-0.5,0-1,0-1.4,0l-0.4,0l0-0.3l0.2-2l0-0.1l0.1,0
					C20.5,65.8,20.9,65.8,21.4,65.8z"/>
			</g>
		</g>
		<g>
			<path class="st3" d="M30.7,69.4c0,0.4-0.1,0.8-0.2,1.1c-0.1,0.3-0.3,0.6-0.6,0.9c-0.2,0.2-0.5,0.4-0.9,0.6
				c-0.3,0.1-0.7,0.2-1.1,0.2c-0.4,0-0.8-0.1-1.1-0.2c-0.3-0.1-0.6-0.3-0.9-0.6c-0.2-0.2-0.4-0.5-0.6-0.9c-0.1-0.3-0.2-0.7-0.2-1.1
				c0-0.4,0.1-0.8,0.2-1.1c0.1-0.3,0.3-0.6,0.5-0.9c0.2-0.2,0.5-0.4,0.9-0.6c0.3-0.1,0.7-0.2,1.1-0.2c0.4,0,0.8,0.1,1.1,0.2
				c0.3,0.1,0.6,0.3,0.9,0.6c0.2,0.2,0.4,0.5,0.6,0.9C30.7,68.6,30.7,69,30.7,69.4z M29.3,69.4c0-0.6-0.1-1-0.4-1.3
				c-0.2-0.3-0.6-0.5-1-0.5c-0.3,0-0.5,0.1-0.7,0.2c-0.2,0.1-0.4,0.3-0.5,0.6c-0.1,0.3-0.2,0.6-0.2,1c0,0.4,0.1,0.7,0.2,0.9
				c0.1,0.3,0.3,0.5,0.5,0.6c0.2,0.1,0.4,0.2,0.7,0.2c0.4,0,0.7-0.2,1-0.5C29.2,70.4,29.3,70,29.3,69.4z"/>
			<g>
				<path class="st4" d="M30.7,69.4c0,0.7-0.2,1.5-0.7,2.1c-0.5,0.6-1.3,0.9-2,0.9c-0.8,0.1-1.6-0.2-2.2-0.7
					c-0.6-0.6-0.9-1.4-0.9-2.2c0-0.8,0.3-1.7,0.9-2.2c0.6-0.6,1.5-0.8,2.2-0.7c0.8,0,1.5,0.4,2,0.9C30.5,67.9,30.7,68.7,30.7,69.4z
					 M30.7,69.4c0-0.7-0.2-1.5-0.8-2c-0.5-0.5-1.3-0.7-2-0.6c-0.7,0-1.4,0.3-1.8,0.8c-0.4,0.5-0.6,1.1-0.6,1.8
					c0,0.7,0.2,1.3,0.6,1.8c0.4,0.5,1.1,0.8,1.8,0.8c0.7,0.1,1.4-0.1,2-0.6C30.5,70.9,30.7,70.2,30.7,69.4z"/>
				<path class="st4" d="M29.3,69.4c0-0.4-0.1-0.9-0.3-1.2c-0.3-0.3-0.6-0.5-1-0.4c-0.8,0.1-1,0.9-1,1.6c0,0.7,0.2,1.5,1,1.6
					c0.4,0.1,0.8-0.1,1-0.4C29.2,70.3,29.3,69.8,29.3,69.4z M29.3,69.4c0,0.4,0,0.8-0.3,1.2c-0.2,0.4-0.6,0.7-1.1,0.7
					c-0.5,0.1-1-0.2-1.3-0.6c-0.3-0.4-0.4-0.9-0.4-1.4c0-0.5,0.1-1,0.4-1.4c0.3-0.4,0.9-0.6,1.3-0.6c0.5,0,0.9,0.3,1.1,0.7
					C29.3,68.6,29.3,69,29.3,69.4z"/>
			</g>
		</g>
		<g>
			<path class="st3" d="M32.9,72.4l0.1-0.3l-1.7-4.3c-0.1-0.2-0.2-0.4-0.2-0.5c0-0.1,0-0.2,0.1-0.3c0.1-0.1,0.1-0.2,0.2-0.2
				c0.1-0.1,0.2-0.1,0.3-0.1c0.2,0,0.3,0.1,0.4,0.2c0.1,0.1,0.2,0.3,0.3,0.5l1.2,3.4l1.1-3.1c0.1-0.3,0.2-0.5,0.2-0.6
				c0.1-0.1,0.1-0.2,0.2-0.3c0.1-0.1,0.2-0.1,0.3-0.1c0.1,0,0.2,0,0.3,0.1c0.1,0.1,0.2,0.1,0.2,0.2c0.1,0.1,0.1,0.2,0.1,0.3
				c0,0.1,0,0.2-0.1,0.3c0,0.1-0.1,0.2-0.1,0.4l-1.8,4.7c-0.2,0.4-0.3,0.7-0.5,1c-0.1,0.2-0.3,0.4-0.6,0.5c-0.2,0.1-0.6,0.2-1,0.2
				c-0.4,0-0.7,0-0.9-0.1c-0.2-0.1-0.3-0.2-0.3-0.5c0-0.2,0-0.3,0.1-0.4c0.1-0.1,0.2-0.1,0.4-0.1c0.1,0,0.1,0,0.2,0
				c0.1,0,0.2,0,0.2,0c0.2,0,0.3,0,0.4-0.1c0.1,0,0.2-0.1,0.2-0.2C32.8,72.8,32.8,72.6,32.9,72.4z"/>
			<g>
				<path class="st4" d="M32.9,72.4l0.1-0.3v0l-1-2.5l-0.5-1.2l-0.3-0.6c-0.1-0.2-0.2-0.5,0-0.7c0.2-0.5,1-0.7,1.4-0.1
					c0.3,0.4,0.4,0.9,0.6,1.3l1,2.5l-0.6,0c0.3-0.9,0.6-1.8,0.9-2.7c0.1-0.2,0.1-0.4,0.2-0.7c0.1-0.2,0.1-0.4,0.4-0.7
					c0.1-0.2,0.4-0.3,0.5-0.3c0.1,0,0.4,0,0.5,0.1c0.3,0.1,0.6,0.5,0.6,0.9l0,0l0,0c-0.1,0.6-0.4,1.1-0.6,1.5l-0.6,1.5
					c-0.4,1-0.8,2-1.3,2.9c-0.2,0.5-0.7,1-1.2,1c-0.3,0.1-0.5,0-0.8,0c-0.3,0-0.5,0-0.8-0.2C31,74,31,73.7,31.1,73.4
					c0.1-0.3,0.5-0.3,0.7-0.3c0.3,0,0.5,0.1,0.8-0.1C32.7,72.9,32.8,72.6,32.9,72.4z M32.9,72.4c-0.1,0.2-0.2,0.5-0.4,0.7
					c-0.2,0.2-0.5,0.1-0.8,0.1c-0.2-0.1-0.6,0-0.7,0.2c-0.1,0.2,0,0.5,0.2,0.6c0.9,0.3,2.3,0.1,2.5-1c0.4-0.9,0.7-2,1.1-3l0.5-1.5
					c0.2-0.5,0.4-1,0.5-1.5l0,0.1c0-0.1-0.1-0.2-0.2-0.2c-0.1,0-0.3,0-0.2,0c-0.1,0.1-0.2,0.3-0.2,0.5c-0.1,0.2-0.2,0.4-0.2,0.6
					c-0.3,0.9-0.6,1.8-1,2.6l-0.3,0.9l-0.3-0.9l-0.8-2.6c-0.1-0.4-0.2-0.9-0.4-1.2c-0.1-0.3-0.7-0.3-0.9,0.1
					c-0.2,0.3,0.1,0.8,0.2,1.2l0.5,1.3l1,2.5l0,0L32.9,72.4z"/>
			</g>
		</g>
		<g>
			<path class="st3" d="M40.6,71.4c-0.3,0.3-0.7,0.5-1,0.6c-0.3,0.1-0.7,0.2-1,0.2c-0.4,0-0.7-0.1-0.9-0.2c-0.3-0.1-0.5-0.3-0.6-0.6
				c-0.1-0.2-0.2-0.5-0.2-0.8c0-0.4,0.1-0.7,0.4-1c0.2-0.3,0.6-0.4,1-0.5c0.1,0,0.3-0.1,0.6-0.1c0.3-0.1,0.6-0.1,0.9-0.2
				c0.2-0.1,0.5-0.1,0.8-0.2c0-0.4-0.1-0.6-0.2-0.8c-0.1-0.2-0.4-0.3-0.8-0.3c-0.3,0-0.6,0-0.8,0.1s-0.3,0.2-0.5,0.4
				c-0.1,0.2-0.2,0.3-0.3,0.4c-0.1,0.1-0.2,0.1-0.3,0.1c-0.2,0-0.3,0-0.4-0.1c-0.1-0.1-0.2-0.2-0.2-0.4c0-0.2,0.1-0.5,0.3-0.7
				c0.2-0.2,0.4-0.4,0.8-0.6c0.4-0.1,0.8-0.2,1.4-0.2c0.6,0,1.1,0.1,1.4,0.2c0.3,0.1,0.6,0.4,0.7,0.7c0.1,0.3,0.2,0.7,0.2,1.2
				c0,0.3,0,0.6,0,0.8c0,0.2,0,0.5,0,0.8c0,0.3,0,0.5,0.1,0.8c0.1,0.3,0.1,0.5,0.1,0.5c0,0.1-0.1,0.3-0.2,0.4
				c-0.1,0.1-0.3,0.2-0.5,0.2c-0.1,0-0.3-0.1-0.4-0.2C40.9,71.9,40.7,71.7,40.6,71.4z M40.5,69.5c-0.2,0.1-0.5,0.2-0.9,0.2
				c-0.4,0.1-0.7,0.1-0.8,0.2c-0.1,0-0.3,0.1-0.4,0.2c-0.1,0.1-0.2,0.3-0.2,0.5c0,0.2,0.1,0.4,0.2,0.5c0.2,0.1,0.4,0.2,0.6,0.2
				c0.3,0,0.5-0.1,0.8-0.2c0.2-0.1,0.4-0.3,0.5-0.5c0.1-0.2,0.2-0.6,0.2-1V69.5z"/>
			<g>
				<path class="st4" d="M40.6,71.4c-0.6,0.5-1.3,0.9-2.2,0.9c-0.4,0-0.9-0.1-1.2-0.4c-0.3-0.3-0.6-0.7-0.6-1.2
					c-0.1-0.4,0.1-0.9,0.4-1.3c0.3-0.4,0.7-0.6,1.2-0.7c0.8-0.2,1.5-0.3,2.3-0.6l-0.2,0.3c0-0.3-0.1-0.6-0.2-0.6
					c-0.2-0.1-0.5-0.1-0.8,0c-0.3,0-0.4,0.2-0.6,0.4l-0.2,0.2l-0.1,0.1l0,0.1c0,0-0.1,0.1-0.1,0.1C37.9,69,37.8,69,37.7,69
					c-0.1,0-0.3,0-0.4-0.1c-0.3-0.1-0.5-0.3-0.6-0.6c-0.1-0.3,0-0.5,0.1-0.7c0.2-0.4,0.5-0.7,0.9-0.9c0.7-0.4,1.5-0.4,2.2-0.4
					c0.4,0,0.7,0.1,1.1,0.2c0.4,0.2,0.7,0.5,0.9,0.9c0.3,0.8,0.2,1.5,0.1,2.2c0,0.3,0,0.7,0,1c0,0.3,0.1,0.7,0.2,1.1
					c-0.1,0.5-0.6,0.7-0.9,0.5c-0.2-0.1-0.3-0.2-0.4-0.4L40.6,71.4z M40.6,71.4l0.3,0.4c0.1,0.1,0.2,0.3,0.4,0.3
					c0.3,0.1,0.6-0.2,0.6-0.4c-0.1-0.3-0.2-0.6-0.3-1c-0.1-0.4,0-0.7-0.1-1.1c0-0.7,0-1.4-0.2-2c-0.2-0.5-0.9-0.7-1.5-0.7
					c-0.7,0-1.3,0-1.9,0.3c-0.3,0.1-0.4,0.3-0.5,0.6c0,0.1-0.1,0.3,0,0.3c0,0,0.1,0.1,0.1,0.1c0,0,0.1,0,0.1,0c0.1,0,0.1,0,0.1,0
					c-0.1,0.1,0,0,0,0l0.1-0.1l0.1-0.2c0.1-0.2,0.3-0.3,0.5-0.5c0.2-0.1,0.4-0.2,0.6-0.2c0.4,0,0.8-0.1,1.2,0.1
					c0.1,0.1,0.2,0.2,0.3,0.3c0.1,0.1,0.1,0.2,0.1,0.3c0.1,0.2,0.1,0.4,0.1,0.6l0,0.3l-0.3,0.1c-0.8,0.2-1.6,0.4-2.3,0.5
					c-0.7,0.1-1.3,0.6-1.2,1.3c0,0.7,0.6,1.2,1.4,1.3C39.2,72.2,39.9,71.9,40.6,71.4z"/>
				<path class="st4" d="M40.5,69.5c-0.3,0.1-0.6,0.3-0.8,0.4c-0.2,0.1-0.5,0.2-0.8,0.3c-0.2,0.1-0.4,0.2-0.4,0.3
					c0,0.1,0,0.3,0.1,0.4c0.2,0.2,0.8,0.2,1.1-0.1C40.2,70.6,40.4,70,40.5,69.5z M40.5,69.5c0.1,0.3,0.1,0.6,0.1,0.9
					c0,0.3-0.2,0.7-0.4,0.9c-0.3,0.2-0.6,0.4-0.9,0.4c-0.3,0.1-0.8,0-1.1-0.3c-0.3-0.3-0.5-0.8-0.3-1.1c0.1-0.2,0.3-0.4,0.4-0.5
					c0.1-0.1,0.3-0.2,0.5-0.2c0.3,0,0.6-0.1,0.9-0.1C40,69.5,40.3,69.5,40.5,69.5z"/>
			</g>
		</g>
		<g>
			<path class="st3" d="M43.2,71.4v-6c0-0.3,0.1-0.5,0.2-0.6c0.1-0.1,0.3-0.2,0.5-0.2c0.2,0,0.4,0.1,0.5,0.2
				c0.1,0.1,0.2,0.3,0.2,0.6v6c0,0.3-0.1,0.5-0.2,0.6c-0.1,0.1-0.3,0.2-0.5,0.2c-0.2,0-0.4-0.1-0.5-0.2
				C43.3,71.9,43.2,71.6,43.2,71.4z"/>
			<g>
				<path class="st4" d="M43.2,71.4c0-1.4-0.1-2.8-0.2-4.2L43,66.1c0-0.4-0.1-0.7,0-1.1c0-0.2,0.2-0.5,0.4-0.6
					c0.3-0.1,0.5-0.2,0.8-0.1c0.3,0.1,0.5,0.2,0.7,0.5C45,65,45,65.2,45,65.4c0,1.4-0.1,2.8-0.2,4.2c-0.1,0.7-0.1,1.4-0.2,2.1
					c-0.1,0.4-0.5,0.6-0.9,0.5C43.4,72.1,43.2,71.7,43.2,71.4z M43.2,71.4c0,0.3,0.2,0.7,0.5,0.8c0.3,0.1,0.7-0.1,0.8-0.5
					c0-0.7-0.1-1.4-0.1-2.1c-0.1-1.4-0.2-2.8-0.2-4.2c0-0.3-0.1-0.4-0.2-0.5c-0.2,0-0.3,0-0.4,0.2c-0.1,0.2-0.1,0.6-0.1,1l-0.1,1.1
					C43.3,68.6,43.2,70,43.2,71.4z"/>
			</g>
		</g>
		<g>
			<path class="st3" d="M50.7,68.9h-0.5v2.4c0,0.3-0.1,0.5-0.2,0.7s-0.3,0.2-0.5,0.2c-0.2,0-0.4-0.1-0.6-0.2
				c-0.1-0.2-0.2-0.4-0.2-0.7v-5.7c0-0.3,0.1-0.6,0.2-0.7c0.1-0.1,0.4-0.2,0.7-0.2H52c0.3,0,0.6,0,0.9,0c0.2,0,0.5,0.1,0.6,0.2
				c0.2,0.1,0.4,0.2,0.6,0.4c0.2,0.2,0.3,0.4,0.4,0.6c0.1,0.2,0.1,0.5,0.1,0.8c0,0.6-0.2,1-0.5,1.3c-0.3,0.3-0.8,0.6-1.4,0.7
				c0.3,0.1,0.5,0.3,0.8,0.6s0.5,0.6,0.6,0.9c0.2,0.3,0.3,0.6,0.4,0.8c0.1,0.3,0.2,0.4,0.2,0.5c0,0.1,0,0.2-0.1,0.3
				c-0.1,0.1-0.1,0.2-0.3,0.2s-0.2,0.1-0.4,0.1c-0.2,0-0.3,0-0.4-0.1c-0.1-0.1-0.2-0.2-0.3-0.3c-0.1-0.1-0.2-0.3-0.3-0.5l-0.6-1
				c-0.2-0.4-0.4-0.6-0.6-0.8c-0.2-0.2-0.3-0.3-0.5-0.4C51.2,69,51,68.9,50.7,68.9z M51.6,65.8h-1.4v2h1.3c0.4,0,0.7,0,0.9-0.1
				c0.2-0.1,0.4-0.2,0.6-0.3c0.1-0.1,0.2-0.4,0.2-0.6c0-0.2-0.1-0.4-0.2-0.5c-0.1-0.2-0.2-0.3-0.4-0.3
				C52.4,65.9,52.1,65.8,51.6,65.8z"/>
			<g>
				<path class="st4" d="M50.7,68.9l-0.5,0l0,0c0,0.9,0,1.8,0,2.7c0,0.2-0.2,0.5-0.4,0.6c-0.2,0.1-0.5,0.1-0.7,0
					c-0.2-0.1-0.4-0.3-0.5-0.6c-0.1-0.2,0-0.5-0.1-0.7l-0.2-5.4c0-0.3,0-0.6,0.2-0.8c0.2-0.3,0.6-0.4,0.8-0.4l1.4,0l1.4,0
					c0.5,0,0.9,0,1.5,0.2c0.5,0.2,0.9,0.6,1.2,1c0.2,0.5,0.3,1,0.2,1.5c-0.1,0.5-0.3,1-0.8,1.3c-0.4,0.3-0.9,0.5-1.4,0.5l0.1-0.5
					c0.4,0.2,0.7,0.5,0.9,0.9c0.2,0.4,0.5,0.7,0.7,1c0.2,0.4,0.4,0.7,0.4,1.2c-0.1,0.5-0.6,0.7-1,0.6c-0.4-0.2-0.6-0.6-0.8-0.9
					l-0.6-1c-0.2-0.3-0.4-0.7-0.7-1C51.5,69,51.1,68.9,50.7,68.9z M50.7,68.9c0.4,0,0.8,0.1,1.1,0.4c0.3,0.3,0.5,0.6,0.7,1l0.6,1
					c0.2,0.3,0.4,0.7,0.8,0.8c0.4,0.1,0.8-0.2,0.8-0.5c0-0.3-0.3-0.7-0.5-1c-0.2-0.4-0.5-0.6-0.7-0.9c-0.2-0.3-0.5-0.5-0.8-0.7
					l-0.6-0.3l0.7-0.2c0.8-0.2,1.5-0.7,1.6-1.5c0.1-0.8-0.3-1.5-1-1.8c-0.7-0.2-1.6-0.1-2.5-0.2l-1.3,0c-0.4,0-0.5,0.1-0.5,0.6
					L48.8,71c0,0.4-0.1,0.9,0.3,1.1c0.4,0.2,0.9,0,1-0.5c0.1-0.9,0-1.8,0.1-2.7l0,0l0,0L50.7,68.9z"/>
				<path class="st4" d="M51.6,65.8c-0.5,0-0.9,0-1.4,0.1l0.1-0.1l0.2,2l-0.3-0.3c0.5,0,1-0.1,1.4-0.1c0.4-0.1,0.9,0,1.2-0.2
					c0.2-0.2,0.3-0.7,0.1-1.1C52.6,65.8,52,65.9,51.6,65.8z M51.6,65.8c0.5,0,1-0.1,1.4,0.3c0.2,0.2,0.3,0.4,0.4,0.7
					c0,0.3,0,0.6-0.2,0.8c-0.2,0.2-0.5,0.4-0.8,0.5c-0.3,0.1-0.5,0.1-0.8,0.1c-0.5,0-1,0-1.4,0l-0.4,0l0-0.3l0.2-2l0-0.1l0.1,0
					C50.7,65.8,51.1,65.8,51.6,65.8z"/>
			</g>
		</g>
		<g>
			<path class="st3" d="M59.6,69.8h-2.7c0,0.3,0.1,0.6,0.2,0.8c0.1,0.2,0.3,0.4,0.5,0.5c0.2,0.1,0.4,0.2,0.7,0.2
				c0.2,0,0.3,0,0.5-0.1c0.1,0,0.3-0.1,0.4-0.2c0.1-0.1,0.2-0.2,0.4-0.3c0.1-0.1,0.2-0.2,0.4-0.4c0.1-0.1,0.2-0.1,0.3-0.1
				c0.1,0,0.3,0,0.3,0.1c0.1,0.1,0.1,0.2,0.1,0.3c0,0.1,0,0.3-0.1,0.4c-0.1,0.2-0.2,0.3-0.4,0.5c-0.2,0.2-0.4,0.3-0.7,0.4
				c-0.3,0.1-0.6,0.2-1,0.2c-0.9,0-1.6-0.3-2.1-0.8c-0.5-0.5-0.7-1.2-0.7-2c0-0.4,0.1-0.8,0.2-1.1c0.1-0.3,0.3-0.6,0.5-0.9
				c0.2-0.2,0.5-0.4,0.9-0.6c0.3-0.1,0.7-0.2,1.1-0.2c0.5,0,1,0.1,1.4,0.3c0.4,0.2,0.7,0.5,0.9,0.9c0.2,0.4,0.3,0.7,0.3,1.1
				c0,0.3-0.1,0.6-0.3,0.7C60.2,69.7,60,69.8,59.6,69.8z M56.9,69h2.5c0-0.5-0.2-0.8-0.4-1.1c-0.2-0.2-0.5-0.3-0.9-0.3
				c-0.3,0-0.6,0.1-0.8,0.4S57,68.5,56.9,69z"/>
			<g>
				<path class="st4" d="M59.6,69.8c-0.9,0-1.8,0-2.7,0l0,0c0,0.5,0.2,0.9,0.5,1.2c0.4,0.3,0.8,0.3,1.2,0.1c0.4-0.1,0.7-0.5,1.1-0.9
					c0.2-0.1,0.3-0.1,0.5-0.1c0.2,0,0.3,0.1,0.5,0.2c0.3,0.3,0.1,0.7,0,1c-0.5,1-1.7,1.3-2.7,1.3c-0.5,0-1-0.1-1.5-0.4
					c-0.5-0.3-0.8-0.7-1.1-1.2c-0.2-0.5-0.3-1-0.3-1.5c0-0.5,0.1-1,0.3-1.5c0.2-0.5,0.6-0.9,1-1.1c0.5-0.3,1-0.4,1.4-0.4
					c1,0,2,0.4,2.4,1.3c0.2,0.4,0.3,0.9,0.3,1.4c0,0.2-0.2,0.5-0.4,0.5C60.1,69.7,59.8,69.8,59.6,69.8z M59.6,69.8
					c0.2,0,0.5,0,0.7-0.1c0.2-0.1,0.4-0.3,0.4-0.5c0.1-0.5-0.1-0.9-0.3-1.3c-0.5-0.8-1.5-1.1-2.4-1c-0.9,0.1-1.7,0.6-2,1.4
					c-0.3,0.8-0.3,1.8,0.1,2.5c0.4,0.7,1.1,1.2,2,1.2c0.8,0.1,1.8-0.2,2.2-0.8c0.1-0.2,0.1-0.3,0.1-0.4c0-0.1-0.3-0.1-0.3-0.1
					c-0.3,0.2-0.7,0.6-1.2,0.8c-0.2,0.1-0.5,0.1-0.8,0.1c-0.3,0-0.5-0.2-0.7-0.3c-0.4-0.3-0.5-0.9-0.5-1.3l0,0l0,0
					C57.8,69.7,58.7,69.7,59.6,69.8z"/>
				<path class="st4" d="M56.9,69c1-0.1,1.8-0.3,2.5-0.4L59.1,69c0-0.3-0.1-0.6-0.3-0.8c-0.1-0.2-0.3-0.3-0.6-0.3
					c-0.3,0-0.5,0-0.7,0.2C57.2,68.3,57,68.6,56.9,69z M56.9,69c-0.1-0.4,0-0.7,0.2-1.1c0.2-0.4,0.7-0.6,1.1-0.6
					c0.4,0,0.9,0.1,1.2,0.5c0.3,0.4,0.4,0.8,0.4,1.2l0,0.4l-0.4,0C58.5,69.3,57.6,69.1,56.9,69z"/>
			</g>
		</g>
		<g>
			<path class="st3" d="M66.3,70.4c0,0.4-0.1,0.7-0.3,1c-0.2,0.3-0.5,0.5-0.8,0.6c-0.4,0.1-0.8,0.2-1.3,0.2c-0.5,0-0.9-0.1-1.3-0.2
				c-0.4-0.2-0.6-0.3-0.8-0.6c-0.2-0.2-0.3-0.5-0.3-0.7c0-0.2,0.1-0.3,0.2-0.4c0.1-0.1,0.2-0.2,0.4-0.2c0.1,0,0.3,0,0.3,0.1
				c0.1,0.1,0.2,0.2,0.2,0.3c0.1,0.2,0.3,0.4,0.5,0.5c0.2,0.1,0.5,0.2,0.8,0.2c0.3,0,0.5-0.1,0.7-0.2c0.2-0.1,0.3-0.3,0.3-0.4
				c0-0.2-0.1-0.4-0.3-0.5c-0.2-0.1-0.5-0.2-0.9-0.3c-0.5-0.1-0.9-0.2-1.2-0.4c-0.3-0.1-0.5-0.3-0.7-0.5c-0.2-0.2-0.3-0.5-0.3-0.8
				c0-0.3,0.1-0.5,0.2-0.8c0.2-0.2,0.4-0.4,0.7-0.6s0.7-0.2,1.2-0.2c0.4,0,0.7,0,1,0.1c0.3,0.1,0.5,0.2,0.7,0.3
				c0.2,0.1,0.3,0.3,0.4,0.4c0.1,0.2,0.1,0.3,0.1,0.4c0,0.2-0.1,0.3-0.2,0.4c-0.1,0.1-0.3,0.2-0.5,0.2c-0.1,0-0.3,0-0.4-0.1
				c-0.1-0.1-0.2-0.2-0.3-0.4c-0.1-0.1-0.2-0.2-0.4-0.3c-0.1-0.1-0.3-0.1-0.6-0.1c-0.2,0-0.5,0.1-0.6,0.2c-0.2,0.1-0.2,0.2-0.2,0.4
				c0,0.1,0.1,0.3,0.2,0.4c0.1,0.1,0.3,0.2,0.5,0.2c0.2,0.1,0.5,0.1,0.8,0.2c0.4,0.1,0.8,0.2,1,0.4c0.3,0.1,0.5,0.3,0.6,0.5
				C66.3,69.9,66.3,70.2,66.3,70.4z"/>
			<g>
				<path class="st4" d="M66.3,70.4c0,0.6-0.3,1.2-0.9,1.5c-0.6,0.3-1.2,0.3-1.8,0.3c-0.6,0-1.3-0.2-1.8-0.7
					c-0.2-0.2-0.4-0.6-0.4-0.9c0-0.4,0.5-0.7,0.9-0.6c0.1,0,0.2,0,0.3,0.1c0.1,0.1,0.1,0.1,0.2,0.2c0.1,0.2,0.2,0.3,0.3,0.4
					c0.2,0.2,0.4,0.3,0.7,0.3c0.6,0.1,1.1-0.2,0.9-0.5c0-0.1-0.3-0.2-0.6-0.3c-0.3-0.1-0.6-0.1-0.9-0.3c-0.3-0.1-0.6-0.2-0.9-0.3
					c-0.3-0.2-0.6-0.4-0.8-0.8c-0.3-0.8,0-1.6,0.6-2.1c0.6-0.5,1.3-0.5,2-0.5c0.7,0,1.4,0.2,1.9,0.7c0.2,0.2,0.5,0.6,0.4,1.1
					c-0.1,0.2-0.2,0.4-0.4,0.5c-0.2,0.1-0.4,0.1-0.6,0c-0.1,0-0.2-0.1-0.3-0.1l-0.2-0.2l-0.3-0.3c-0.2-0.2-0.4-0.3-0.7-0.3
					c-0.3,0-0.6,0.1-0.7,0.3c-0.1,0.3,0.1,0.5,0.4,0.6c0.6,0.2,1.2,0.3,1.8,0.6C65.8,69.3,66.4,69.8,66.3,70.4z M66.3,70.4
					c0-0.7-0.6-1.1-1.1-1.3c-0.6-0.2-1.2-0.3-1.8-0.5c-0.1-0.1-0.3-0.1-0.4-0.3c-0.1-0.1-0.2-0.3-0.1-0.5c0.2-0.3,0.5-0.5,0.9-0.5
					c0.3,0,0.7,0.1,1,0.3L65,68l0.2,0.2c0,0,0.1,0.1,0.1,0.1c0.2,0,0.5-0.1,0.5-0.2c0-0.2-0.1-0.4-0.3-0.6c-0.4-0.3-1-0.4-1.6-0.5
					c-0.6,0-1.1,0.1-1.5,0.4c-0.4,0.3-0.5,0.8-0.3,1.2c0.1,0.2,0.3,0.4,0.5,0.5c0.2,0.1,0.5,0.2,0.8,0.3c0.3,0.1,0.5,0.2,0.9,0.3
					c0.2,0.1,0.3,0.1,0.5,0.2c0.2,0.1,0.4,0.3,0.5,0.5c0.1,0.2,0.1,0.4,0,0.7c-0.1,0.2-0.3,0.3-0.5,0.4c-0.4,0.2-0.7,0.1-1.1,0.1
					c-0.4-0.1-0.7-0.3-0.9-0.6c-0.1-0.1-0.2-0.3-0.3-0.4l-0.1-0.2c0,0-0.1,0-0.1-0.1c-0.2-0.1-0.5,0.1-0.5,0.3
					c0,0.2,0.1,0.5,0.3,0.7c0.4,0.4,1,0.7,1.6,0.7c0.6,0,1.2,0,1.8-0.2C66,71.7,66.3,71,66.3,70.4z"/>
			</g>
		</g>
		<g>
			<path class="st3" d="M72.6,69.4c0,0.4-0.1,0.8-0.2,1.1c-0.1,0.3-0.3,0.6-0.6,0.9c-0.2,0.2-0.5,0.4-0.9,0.6
				c-0.3,0.1-0.7,0.2-1.1,0.2c-0.4,0-0.8-0.1-1.1-0.2c-0.3-0.1-0.6-0.3-0.9-0.6c-0.2-0.2-0.4-0.5-0.6-0.9c-0.1-0.3-0.2-0.7-0.2-1.1
				c0-0.4,0.1-0.8,0.2-1.1c0.1-0.3,0.3-0.6,0.5-0.9c0.2-0.2,0.5-0.4,0.9-0.6c0.3-0.1,0.7-0.2,1.1-0.2c0.4,0,0.8,0.1,1.1,0.2
				c0.3,0.1,0.6,0.3,0.9,0.6c0.2,0.2,0.4,0.5,0.6,0.9C72.6,68.6,72.6,69,72.6,69.4z M71.3,69.4c0-0.6-0.1-1-0.4-1.3
				c-0.2-0.3-0.6-0.5-1-0.5c-0.3,0-0.5,0.1-0.7,0.2c-0.2,0.1-0.4,0.3-0.5,0.6c-0.1,0.3-0.2,0.6-0.2,1c0,0.4,0.1,0.7,0.2,0.9
				c0.1,0.3,0.3,0.5,0.5,0.6c0.2,0.1,0.4,0.2,0.7,0.2c0.4,0,0.7-0.2,1-0.5C71.1,70.4,71.3,70,71.3,69.4z"/>
			<g>
				<path class="st4" d="M72.6,69.4c0,0.7-0.2,1.5-0.7,2.1c-0.5,0.6-1.3,0.9-2,0.9c-0.8,0.1-1.6-0.2-2.2-0.7
					c-0.6-0.6-0.9-1.4-0.9-2.2c0-0.8,0.3-1.7,0.9-2.2c0.6-0.6,1.5-0.8,2.2-0.7c0.8,0,1.5,0.4,2,0.9C72.4,67.9,72.6,68.7,72.6,69.4z
					 M72.6,69.4c0-0.7-0.2-1.5-0.8-2c-0.5-0.5-1.3-0.7-2-0.6c-0.7,0-1.4,0.3-1.8,0.8c-0.4,0.5-0.6,1.1-0.6,1.8
					c0,0.7,0.2,1.3,0.6,1.8c0.4,0.5,1.1,0.8,1.8,0.8c0.7,0.1,1.4-0.1,2-0.6C72.4,70.9,72.6,70.2,72.6,69.4z"/>
				<path class="st4" d="M71.3,69.4c0-0.4-0.1-0.9-0.3-1.2c-0.3-0.3-0.6-0.5-1-0.4c-0.8,0.1-1,0.9-1,1.6c0,0.7,0.2,1.5,1,1.6
					c0.4,0.1,0.8-0.1,1-0.4C71.2,70.3,71.2,69.8,71.3,69.4z M71.3,69.4c0,0.4,0,0.8-0.3,1.2c-0.2,0.4-0.6,0.7-1.1,0.7
					c-0.5,0.1-1-0.2-1.3-0.6c-0.3-0.4-0.4-0.9-0.4-1.4c0-0.5,0.1-1,0.4-1.4c0.3-0.4,0.9-0.6,1.3-0.6c0.5,0,0.9,0.3,1.1,0.7
					C71.2,68.6,71.3,69,71.3,69.4z"/>
			</g>
		</g>
		<g>
			<path class="st3" d="M75.1,70.2v1.1c0,0.3-0.1,0.5-0.2,0.6c-0.1,0.1-0.3,0.2-0.5,0.2c-0.2,0-0.4-0.1-0.5-0.2
				c-0.1-0.1-0.2-0.3-0.2-0.6v-3.8c0-0.6,0.2-0.9,0.7-0.9c0.2,0,0.4,0.1,0.5,0.2C75,67,75,67.2,75,67.5c0.2-0.3,0.3-0.5,0.5-0.6
				c0.2-0.1,0.4-0.2,0.7-0.2c0.3,0,0.6,0.1,0.8,0.2c0.3,0.1,0.4,0.3,0.4,0.6c0,0.2-0.1,0.3-0.2,0.4c-0.1,0.1-0.2,0.2-0.4,0.2
				c-0.1,0-0.2,0-0.4-0.1c-0.2-0.1-0.4-0.1-0.5-0.1c-0.2,0-0.4,0.1-0.5,0.2c-0.1,0.1-0.2,0.3-0.3,0.5c-0.1,0.2-0.1,0.5-0.1,0.7
				C75.1,69.5,75.1,69.8,75.1,70.2z"/>
			<g>
				<path class="st4" d="M75.1,70.2l0,1.2c0,0.2-0.1,0.4-0.2,0.6c-0.2,0.2-0.4,0.2-0.6,0.2c-0.2,0-0.4-0.2-0.6-0.4
					c-0.1-0.2-0.1-0.5-0.1-0.7L73.5,70c-0.1-0.8-0.1-1.7-0.1-2.5c0-0.2,0-0.5,0.2-0.8c0.1-0.3,0.5-0.5,0.8-0.5
					c0.3,0,0.7,0.1,0.9,0.4c0.2,0.3,0.2,0.5,0.2,0.8l-0.7-0.2c0.2-0.3,0.4-0.6,0.8-0.8c0.4-0.2,0.8-0.2,1.2-0.1
					c0.2,0.1,0.4,0.1,0.5,0.2c0.2,0.1,0.3,0.2,0.4,0.5c0.2,0.4-0.1,0.9-0.5,1c-0.2,0.1-0.4-0.1-0.6-0.1l-0.4-0.1
					c-0.3-0.1-0.6,0.1-0.7,0.4c-0.1,0.3-0.2,0.6-0.2,0.9L75.1,70.2z M75.1,70.2l0-1c0.1-0.3,0.1-0.7,0.2-1c0.1-0.3,0.5-0.6,0.8-0.6
					l0.5,0.1c0.1,0,0.3,0.1,0.4,0c0.2-0.1,0.3-0.4,0.2-0.5c-0.1-0.2-0.4-0.3-0.7-0.3c-0.3,0-0.6,0-0.7,0.1c-0.2,0.1-0.3,0.4-0.5,0.6
					l-0.6,1.1l-0.1-1.3c0-0.2,0-0.3-0.1-0.4c0-0.1-0.1-0.1-0.2-0.1c-0.1,0-0.2,0-0.2,0.1c-0.1,0.1-0.1,0.2-0.1,0.4
					c0,0.8-0.1,1.7-0.1,2.5l-0.1,1.2c-0.1,0.4,0,0.8,0.4,0.9c0.4,0.1,0.8-0.2,0.8-0.7L75.1,70.2z"/>
			</g>
		</g>
		<g>
			<path class="st3" d="M78.4,66.7h0.2v-0.8c0-0.2,0-0.4,0-0.5c0-0.1,0-0.2,0.1-0.3c0.1-0.1,0.1-0.2,0.2-0.2
				c0.1-0.1,0.2-0.1,0.3-0.1c0.2,0,0.3,0.1,0.5,0.2c0.1,0.1,0.2,0.2,0.2,0.3c0,0.1,0,0.3,0,0.5v0.9h0.5c0.2,0,0.3,0,0.4,0.1
				c0.1,0.1,0.2,0.2,0.2,0.4c0,0.2-0.1,0.3-0.2,0.4s-0.4,0.1-0.6,0.1H80v2.5c0,0.2,0,0.4,0,0.5c0,0.1,0.1,0.2,0.1,0.3
				c0.1,0.1,0.2,0.1,0.3,0.1c0.1,0,0.2,0,0.3,0c0.1,0,0.2,0,0.3,0c0.1,0,0.2,0,0.3,0.1c0.1,0.1,0.1,0.2,0.1,0.3
				c0,0.2-0.1,0.4-0.4,0.5c-0.2,0.1-0.6,0.2-1,0.2c-0.4,0-0.8-0.1-1-0.2c-0.2-0.1-0.4-0.3-0.4-0.6c-0.1-0.3-0.1-0.6-0.1-1v-2.6h-0.2
				c-0.2,0-0.3,0-0.5-0.1c-0.1-0.1-0.2-0.2-0.2-0.4s0.1-0.3,0.2-0.4C78.1,66.8,78.2,66.7,78.4,66.7z"/>
			<g>
				<path class="st4" d="M78.4,66.7l0.2,0l0,0c0-0.4,0-0.8,0-1.2c0-0.2,0-0.4,0.1-0.6c0.1-0.2,0.3-0.3,0.5-0.3
					c0.2,0,0.4,0.1,0.6,0.2c0.2,0.2,0.2,0.4,0.2,0.6c0.1,0.4,0.1,0.8,0.1,1.2L80,66.6c0.2,0,0.4,0,0.7,0c0.3,0,0.6,0.3,0.6,0.7
					c0,0.1,0,0.3-0.2,0.5c-0.1,0.1-0.3,0.2-0.4,0.2C80.4,68,80.2,68,80,68l0.3-0.3l0.1,3c0,0,0.1,0.1,0,0c0,0,0.1,0,0.2,0l0.4,0
					c0.1,0,0.1,0,0.3,0c0.1,0,0.2,0.1,0.3,0.1c0.2,0.1,0.3,0.3,0.3,0.6c0,0.2,0,0.4-0.1,0.6c-0.3,0.3-0.6,0.4-0.9,0.5
					c-0.6,0.1-1.1,0.1-1.7-0.2c-0.3-0.1-0.5-0.4-0.6-0.7c-0.1-0.3-0.1-0.5-0.1-0.8l0.1-3.1l0,0c-0.2,0-0.3,0-0.5-0.1
					c-0.2-0.1-0.3-0.2-0.3-0.4c0-0.2,0-0.3,0.2-0.4C78.1,66.8,78.3,66.7,78.4,66.7z M78.4,66.7c-0.2,0-0.3,0-0.5,0.1
					c-0.1,0.1-0.2,0.3-0.2,0.4c0,0.2,0.1,0.3,0.3,0.4c0.2,0.1,0.3,0,0.5,0l0,0l0,0c0,1,0.1,2,0.1,3c0,0.5,0.2,0.9,0.6,1.1
					c0.4,0.1,0.9,0.1,1.3,0c0.2,0,0.4-0.1,0.4-0.2c0,0,0-0.1,0-0.1c0,0,0,0-0.1-0.1c0,0,0,0-0.1,0l-0.4,0.1c-0.1,0-0.3,0.1-0.6-0.1
					c-0.3-0.2-0.3-0.4-0.4-0.6c0-0.6,0-1.1,0-1.6c0-0.5,0-1,0.1-1.5l0-0.3l0.3,0c0.2,0,0.4,0,0.6,0c0.2-0.1,0.2,0,0.2-0.2
					c0-0.1-0.1-0.2-0.2-0.3c-0.2,0-0.4,0-0.6,0l-0.2,0l0-0.1c0-0.4,0.1-0.8,0-1.2c0-0.2,0-0.4-0.1-0.5c-0.1-0.1-0.3-0.2-0.5-0.2
					c-0.4,0-0.7,0.4-0.7,0.8c0,0.4,0,0.8,0,1.2l0,0L78.4,66.7z"/>
			</g>
		</g>
	</g>
</g>
<g>
	<path class="st5" d="M58.6,29c0.1,0,0.2,0,0.3,0.1c0.1,0,0.2,0.1,0.3,0.1c0.1,0,0.2,0.1,0.3,0.2c0,0,0.1,0.1,0.1,0.1
		c0,0,0.1,0.1,0.1,0.1c0,0,0.1,0.1,0.1,0.1c0,0,0,0,0.1,0.1l0,0l0,0c0.1,0.1,0.1,0.2,0.2,0.3c0.1,0.2,0.1,0.4,0.1,0.6
		c0,0.1,0,0.2,0,0.3l0,0c0,0,0,0,0,0l0,0.1l0,0.1l0,0.1c0,0.2,0,0.4-0.1,0.6c0,0.2,0,0.4,0,0.6c0,0.1,0,0.2,0.1,0.3
		c0,0.1,0.1,0.2,0.2,0.3c-0.1-0.1-0.1-0.2-0.2-0.3c0-0.1-0.1-0.2-0.1-0.3c0-0.2-0.1-0.4-0.1-0.6c0-0.2,0-0.4,0-0.6c0,0,0-0.1,0-0.1
		l0-0.1l0-0.1c0,0,0,0,0,0l0,0c0-0.1,0-0.2,0-0.3c0-0.2,0-0.4-0.1-0.6c-0.1-0.2-0.2-0.4-0.4-0.5c0,0-0.1-0.1-0.1-0.1
		c0,0-0.1-0.1-0.1-0.1c-0.1-0.1-0.2-0.1-0.3-0.2C59,29.1,58.8,29.1,58.6,29z"/>
	<path class="st5" d="M58.7,29.1c0.1,0,0.2,0,0.3,0.1c0.1,0,0.2,0.1,0.3,0.1c0.1,0,0.2,0.1,0.3,0.2c0,0,0.1,0.1,0.1,0.1
		c0,0,0.1,0.1,0.1,0.1c0,0,0.1,0.1,0.1,0.1c0,0,0,0,0.1,0.1l0,0l0,0c0.1,0.1,0.1,0.2,0.2,0.3c0.1,0.2,0.1,0.4,0.1,0.6
		c0,0.1,0,0.2,0,0.3l0,0c0,0,0,0,0,0l0,0.1l0,0.1l0,0.1c0,0.2,0,0.4-0.1,0.6c0,0.2,0,0.4,0,0.6c0,0.1,0,0.2,0.1,0.3
		c0,0.1,0.1,0.2,0.2,0.3c-0.1-0.1-0.1-0.2-0.2-0.3c0-0.1-0.1-0.2-0.1-0.3c0-0.2-0.1-0.4-0.1-0.6c0-0.2,0-0.4,0-0.6c0,0,0-0.1,0-0.1
		l0-0.1l0-0.1c0,0,0,0,0,0l0,0c0-0.1,0-0.2,0-0.3c0-0.2,0-0.4-0.1-0.6c-0.1-0.2-0.2-0.4-0.4-0.5c0,0-0.1-0.1-0.1-0.1
		c0,0-0.1-0.1-0.1-0.1c-0.1-0.1-0.2-0.1-0.3-0.2C59.1,29.2,58.9,29.1,58.7,29.1z"/>
	<path class="st5" d="M59,29c0.2,0,0.3,0.1,0.4,0.1c0.1,0.1,0.3,0.1,0.4,0.2c0.1,0.1,0.2,0.2,0.4,0.3c0.1,0.1,0.2,0.2,0.3,0.4
		c0,0.1,0.1,0.1,0.1,0.2l0,0.1c0,0,0,0,0,0.1l0,0.1l0,0.1l0,0.1c0,0,0,0.1,0,0.1c0,0.1,0,0.2,0,0.2c0,0.3-0.1,0.6-0.2,0.9
		c0.1-0.3,0.1-0.6,0.1-0.9c0-0.1,0-0.1,0-0.2c0,0,0-0.1,0-0.1l0-0.1l0-0.1l0-0.1c0,0,0,0,0-0.1l0-0.1c0-0.1-0.1-0.1-0.1-0.2
		c-0.1-0.3-0.4-0.5-0.6-0.7c-0.1-0.1-0.3-0.2-0.4-0.2C59.2,29.1,59.1,29,59,29z"/>
	<path class="st5" d="M60,31l0.1,0.5c0,0-0.3-0.3-0.7-0.4c-0.2,0-0.5-0.1-0.6-0.7C58.7,30.5,59.2,31.4,60,31z"/>
	<path class="st5" d="M60.1,31.6c-0.1-0.1-0.1-0.1-0.2-0.1c-0.1,0-0.1-0.1-0.2-0.1c-0.1,0-0.1-0.1-0.2-0.1c-0.1,0-0.1,0-0.2-0.1
		c-0.1,0-0.1-0.1-0.2-0.1c-0.1,0-0.1-0.1-0.2-0.2c-0.1-0.1-0.1-0.3-0.2-0.4l0,0.1c0,0,0,0.1,0,0.1c0,0.1,0.1,0.1,0.1,0.2
		c0,0.1,0.1,0.1,0.2,0.2c0.1,0,0.1,0.1,0.2,0.1c0.1,0,0.1,0,0.2,0.1c0.1,0,0.1,0.1,0.2,0.1C59.8,31.4,59.9,31.5,60.1,31.6z"/>
	<path class="st5" d="M60,30.8c-0.1,0-0.1,0.1-0.2,0.1c-0.1,0-0.2,0-0.2,0c-0.2-0.1-0.3-0.2-0.4-0.3C59,30.4,59,30.3,59,30.1
		c0-0.1,0-0.2,0.1-0.2c0-0.1,0.1-0.1,0.2-0.2c0.1,0,0.2-0.1,0.2-0.1c0.1,0,0.2,0,0.2,0c0.2,0.1,0.3,0.2,0.4,0.3
		c0.1,0.1,0.1,0.3,0.1,0.5c0,0.1,0,0.2-0.1,0.2C60.1,30.7,60,30.8,60,30.8z M60,30.8c0.1,0,0.1-0.1,0.2-0.2c0-0.1,0.1-0.1,0.1-0.2
		c0-0.2,0-0.3-0.1-0.4c-0.1-0.1-0.2-0.2-0.4-0.3c-0.1-0.1-0.3-0.1-0.4,0c-0.1,0.1-0.2,0.2-0.2,0.4c0,0.2,0,0.3,0.1,0.4
		c0.1,0.1,0.2,0.3,0.3,0.3c0.1,0,0.2,0,0.2,0C59.8,30.9,59.9,30.9,60,30.8z"/>
	<ellipse transform="matrix(0.8524 -0.5229 0.5229 0.8524 -6.9678 35.7549)" class="st5" cx="59.9" cy="30.2" rx="0.3" ry="0.4"/>
	<path class="st6" d="M59.8,29.8l-0.1-0.1c0,0-0.1,0-0.1,0c0,0-0.2,0-0.2,0l0,0l0,0.1l0.1,0.1l0.1,0l0-0.1c0,0,0.1,0,0.1,0
		c0,0,0.1,0,0.1,0C59.7,29.8,59.8,29.8,59.8,29.8z"/>
	<path class="st6" d="M59.4,30L59.4,30l0,0.1c0,0,0,0,0,0.1c0,0,0,0.1,0,0.1s0.1,0.1,0.1,0.1c0,0.1,0,0.1,0,0.2s0.1,0.1,0.1,0.1
		l0,0.1c0,0-0.1-0.1-0.2-0.1c-0.1,0-0.2,0-0.2-0.1s0-0.1,0-0.2c0-0.1,0-0.1,0-0.1s0-0.1,0-0.1c0,0,0-0.1,0-0.1c0,0,0-0.1,0.1-0.1
		C59.3,29.9,59.4,30,59.4,30z"/>
	<path class="st6" d="M60.1,30.6L60.1,30.6L60,30.6l-0.1,0l-0.1,0l0,0.1l-0.1,0l0.1,0.1c0,0,0,0,0,0s0.1-0.1,0.1-0.1s0.1,0,0.1,0
		C60,30.7,60.1,30.6,60.1,30.6L60.1,30.6L60.1,30.6z"/>
	<circle class="st4" cx="59.9" cy="30.2" r="0"/>
</g>
</svg>
