<?xml version="1.0" encoding="utf-8"?>
<!-- Generator: Adobe Illustrator 22.1.0, SVG Export Plug-In . SVG Version: 6.00 Build 0)  -->
<svg version="1.1" id="Layer_1" xmlns="http://www.w3.org/2000/svg" xmlns:xlink="http://www.w3.org/1999/xlink" x="0px" y="0px"
	 viewBox="0 0 100 100" style="enable-background:new 0 0 100 100;" xml:space="preserve">
<style type="text/css">
	.st0{fill:#FDCCCC;}
	.st1{fill:#8E0303;}
	.st2{fill:#920002;}
	.st3{opacity:0.76;fill:#AF1C24;}
	.st4{fill:#FFFFFF;}
</style>
<g>
	<g>
		<path class="st0" d="M60.1,23c0,0-0.9,2,0.2,3.5c0,0,1.2-0.1,1.1,4.4c0,0-0.1,3.3,1.3,6.3c0,0,0.7,4.9-2.4,4.8c0,0-2.4-0.5-2.1-3
			c0.2-1.7-2.6,0.4-5-4.5C53,34,53.4,34,52.7,32.5c-0.3-0.7-1.8-0.6-0.7,3c0,0,6.2,12.3-0.7,18l-5.7,6.3c0,0-4.2-14.7-5.3-15.6
			c-2.7-2.3-4.9-6.7-1-14.3c0,0,2.2-5.9,11.9-6.8c0,0,4.8-0.5,5.5-1.5c0,0-0.4-1,1.4,0.8c0.3,0.3,1-0.3,1.7-0.6
			C59.9,21.9,60.5,21.4,60.1,23z"/>
		<path class="st1" d="M57.1,22.4c0.1,0.1,0.3,0.3,0.6,0.6c0.2,0.2,0.4,0.3,0.7,0.3c0.3,0,0.7-0.2,1-0.4c-0.2,0.6-0.7,2.5,0.4,4
			l0.2,0.3l0.2,0c0.1,0.2,0.6,0.9,0.5,3.7c0,0.1-0.1,3.4,1.3,6.5c0.1,0.8,0.2,2.6-0.6,3.5c-0.2,0.3-0.6,0.4-1,0.4c0,0,0,0,0,0
			c-0.1,0-0.5-0.2-0.9-0.4c-0.5-0.4-0.7-1-0.6-1.8c0.2-1.3-0.8-1.5-1.4-1.6c-0.9-0.2-2.3-0.6-3.7-3.3c0,0,0,0,0-0.1
			c0-0.4-0.1-0.8-0.5-1.8c-0.2-0.4-0.6-0.7-1.1-0.7c-0.4,0-0.7,0.2-0.9,0.5c-0.5,0.7-0.5,2,0.1,3.8l0,0.1l0,0
			c0.1,0.1,5.9,11.9-0.5,17.2l0,0l0,0L46,58.6c-0.4-1.4-1.1-3.8-1.9-6.3c-2.4-7.8-3-8.2-3.3-8.4c-2.5-2.1-4.6-6.2-0.8-13.5l0,0l0,0
			c0,0,0.5-1.4,2.2-2.8c1.5-1.3,4.4-3,9.2-3.5l0,0l0,0c0.1,0,1.2-0.1,2.6-0.4C55.9,23.2,56.7,22.8,57.1,22.4 M56.9,21.5
			c-0.2,0,0,0.3,0,0.3c-0.7,1-5.5,1.5-5.5,1.5C41.5,24.2,39.4,30,39.4,30c-3.9,7.6-1.7,12,1,14.3c1.1,0.9,5.3,15.6,5.3,15.6l5.7-6.3
			c6.9-5.7,0.7-18,0.7-18c-0.8-2.6-0.3-3.4,0.2-3.4c0.2,0,0.4,0.1,0.5,0.3c0.7,1.4,0.3,1.5,0.6,1.9c2.4,4.9,5.3,2.8,5,4.5
			c-0.4,2.6,2.1,3,2.1,3c0,0,0.1,0,0.1,0c2.9,0,2.2-4.8,2.2-4.8c-1.4-3-1.3-6.3-1.3-6.3c0.1-4.3-1-4.4-1.1-4.4c0,0,0,0,0,0
			C59.2,25,60.1,23,60.1,23c0.2-1,0.1-1.2-0.1-1.2c-0.1,0-0.2,0.1-0.2,0.1c-0.6,0.3-1.1,0.7-1.5,0.7c-0.1,0-0.2,0-0.2-0.1
			C57.3,21.7,57,21.5,56.9,21.5L56.9,21.5z"/>
	</g>
	<g>
		<path class="st2" d="M57.6,29c0.1,0,0.2,0,0.3,0.1c0.1,0,0.2,0.1,0.3,0.1c0.1,0,0.2,0.1,0.3,0.2c0,0,0.1,0.1,0.1,0.1
			c0,0,0.1,0.1,0.1,0.1c0,0,0.1,0.1,0.1,0.1c0,0,0,0,0.1,0.1l0,0l0,0c0.1,0.1,0.1,0.2,0.2,0.3c0.1,0.2,0.1,0.4,0.1,0.6
			c0,0.1,0,0.2,0,0.3l0,0c0,0,0,0,0,0l0,0.1l0,0.1l0,0.1c0,0.2,0,0.4-0.1,0.6c0,0.2,0,0.4,0,0.6c0,0.1,0,0.2,0.1,0.3
			c0,0.1,0.1,0.2,0.2,0.3c-0.1-0.1-0.1-0.2-0.2-0.3c0-0.1-0.1-0.2-0.1-0.3c0-0.2-0.1-0.4-0.1-0.6c0-0.2,0-0.4,0-0.6c0,0,0-0.1,0-0.1
			l0-0.1l0-0.1c0,0,0,0,0,0l0,0c0-0.1,0-0.2,0-0.3c0-0.2,0-0.4-0.1-0.6c-0.1-0.2-0.2-0.4-0.4-0.5c0,0-0.1-0.1-0.1-0.1
			c0,0-0.1-0.1-0.1-0.1c-0.1-0.1-0.2-0.1-0.3-0.2C58,29.1,57.8,29.1,57.6,29z"/>
		<path class="st2" d="M57.7,29.1c0.1,0,0.2,0,0.3,0.1c0.1,0,0.2,0.1,0.3,0.1c0.1,0,0.2,0.1,0.3,0.2c0,0,0.1,0.1,0.1,0.1
			c0,0,0.1,0.1,0.1,0.1c0,0,0.1,0.1,0.1,0.1c0,0,0,0,0.1,0.1l0,0l0,0c0.1,0.1,0.1,0.2,0.2,0.3c0.1,0.2,0.1,0.4,0.1,0.6
			c0,0.1,0,0.2,0,0.3l0,0c0,0,0,0,0,0l0,0.1l0,0.1l0,0.1c0,0.2,0,0.4-0.1,0.6c0,0.2,0,0.4,0,0.6c0,0.1,0,0.2,0.1,0.3
			c0,0.1,0.1,0.2,0.2,0.3c-0.1-0.1-0.1-0.2-0.2-0.3c0-0.1-0.1-0.2-0.1-0.3c0-0.2-0.1-0.4-0.1-0.6c0-0.2,0-0.4,0-0.6c0,0,0-0.1,0-0.1
			l0-0.1l0-0.1c0,0,0,0,0,0l0,0c0-0.1,0-0.2,0-0.3c0-0.2,0-0.4-0.1-0.6c-0.1-0.2-0.2-0.4-0.4-0.5c0,0-0.1-0.1-0.1-0.1
			c0,0-0.1-0.1-0.1-0.1c-0.1-0.1-0.2-0.1-0.3-0.2C58.1,29.2,57.9,29.1,57.7,29.1z"/>
		<path class="st2" d="M58,29c0.2,0,0.3,0.1,0.4,0.1c0.1,0.1,0.3,0.1,0.4,0.2c0.1,0.1,0.2,0.2,0.4,0.3c0.1,0.1,0.2,0.2,0.3,0.4
			c0,0.1,0.1,0.1,0.1,0.2l0,0.1c0,0,0,0,0,0.1l0,0.1l0,0.1l0,0.1c0,0,0,0.1,0,0.1c0,0.1,0,0.2,0,0.2c0,0.3-0.1,0.6-0.2,0.9
			c0.1-0.3,0.1-0.6,0.1-0.9c0-0.1,0-0.1,0-0.2c0,0,0-0.1,0-0.1l0-0.1l0-0.1l0-0.1c0,0,0,0,0-0.1l0-0.1c0-0.1-0.1-0.1-0.1-0.2
			c-0.1-0.3-0.4-0.5-0.6-0.7c-0.1-0.1-0.3-0.2-0.4-0.2C58.2,29.1,58.1,29,58,29z"/>
		<path class="st2" d="M59,31l0.1,0.5c0,0-0.3-0.3-0.7-0.4c-0.2,0-0.5-0.1-0.6-0.7C57.7,30.5,58.2,31.4,59,31z"/>
		<path class="st2" d="M59.1,31.6c-0.1-0.1-0.1-0.1-0.2-0.1c-0.1,0-0.1-0.1-0.2-0.1c-0.1,0-0.1-0.1-0.2-0.1c-0.1,0-0.1,0-0.2-0.1
			c-0.1,0-0.1-0.1-0.2-0.1c-0.1,0-0.1-0.1-0.2-0.2c-0.1-0.1-0.1-0.3-0.2-0.4l0,0.1c0,0,0,0.1,0,0.1c0,0.1,0.1,0.1,0.1,0.2
			c0,0.1,0.1,0.1,0.2,0.2c0.1,0,0.1,0.1,0.2,0.1c0.1,0,0.1,0,0.2,0.1c0.1,0,0.1,0.1,0.2,0.1C58.8,31.4,58.9,31.5,59.1,31.6z"/>
		<path class="st2" d="M59,30.8c-0.1,0-0.1,0.1-0.2,0.1c-0.1,0-0.2,0-0.2,0c-0.2-0.1-0.3-0.2-0.4-0.3C58,30.4,58,30.3,58,30.1
			c0-0.1,0-0.2,0.1-0.2c0-0.1,0.1-0.1,0.2-0.2c0.1,0,0.2-0.1,0.2-0.1c0.1,0,0.2,0,0.2,0c0.2,0.1,0.3,0.2,0.4,0.3
			c0.1,0.1,0.1,0.3,0.1,0.5c0,0.1,0,0.2-0.1,0.2C59.1,30.7,59,30.8,59,30.8z M59,30.8c0.1,0,0.1-0.1,0.2-0.2c0-0.1,0.1-0.1,0.1-0.2
			c0-0.2,0-0.3-0.1-0.4c-0.1-0.1-0.2-0.2-0.4-0.3c-0.1-0.1-0.3-0.1-0.4,0c-0.1,0.1-0.2,0.2-0.2,0.4c0,0.2,0,0.3,0.1,0.4
			c0.1,0.1,0.2,0.3,0.3,0.3c0.1,0,0.2,0,0.2,0C58.8,30.9,58.9,30.9,59,30.8z"/>
		<ellipse transform="matrix(0.8524 -0.5229 0.5229 0.8524 -7.1154 35.2321)" class="st2" cx="58.9" cy="30.2" rx="0.3" ry="0.4"/>
		<path class="st3" d="M58.8,29.8l-0.1-0.1c0,0-0.1,0-0.1,0c0,0-0.2,0-0.2,0l0,0l0,0.1l0.1,0.1l0.1,0l0-0.1c0,0,0.1,0,0.1,0
			c0,0,0.1,0,0.1,0C58.7,29.8,58.8,29.8,58.8,29.8z"/>
		<path class="st3" d="M58.4,30L58.4,30l0,0.1c0,0,0,0,0,0.1c0,0,0,0.1,0,0.1s0.1,0.1,0.1,0.1c0,0.1,0,0.1,0,0.2s0.1,0.1,0.1,0.1
			l0,0.1c0,0-0.1-0.1-0.2-0.1c-0.1,0-0.2,0-0.2-0.1s0-0.1,0-0.2c0-0.1,0-0.1,0-0.1s0-0.1,0-0.1c0,0,0-0.1,0-0.1c0,0,0-0.1,0.1-0.1
			C58.3,29.9,58.4,30,58.4,30z"/>
		<path class="st3" d="M59.1,30.6L59.1,30.6L59,30.6l-0.1,0l-0.1,0l0,0.1l-0.1,0l0.1,0.1c0,0,0,0,0,0s0.1-0.1,0.1-0.1s0.1,0,0.1,0
			C59,30.7,59.1,30.6,59.1,30.6L59.1,30.6L59.1,30.6z"/>
		<circle class="st4" cx="58.9" cy="30.2" r="0"/>
	</g>
</g>
<g>
	<g>
		<path class="st2" d="M20.5,68.9H20v2.4c0,0.3-0.1,0.5-0.2,0.7c-0.1,0.1-0.3,0.2-0.5,0.2c-0.2,0-0.4-0.1-0.6-0.2
			c-0.1-0.2-0.2-0.4-0.2-0.7v-5.7c0-0.3,0.1-0.6,0.2-0.7c0.1-0.1,0.4-0.2,0.7-0.2h2.4c0.3,0,0.6,0,0.9,0c0.2,0,0.5,0.1,0.6,0.2
			c0.2,0.1,0.4,0.2,0.6,0.4c0.2,0.2,0.3,0.4,0.4,0.6c0.1,0.2,0.1,0.5,0.1,0.8c0,0.6-0.2,1-0.5,1.3c-0.3,0.3-0.8,0.6-1.4,0.7
			c0.3,0.1,0.5,0.3,0.8,0.6c0.2,0.3,0.5,0.6,0.6,0.9c0.2,0.3,0.3,0.6,0.4,0.8c0.1,0.3,0.2,0.4,0.2,0.5c0,0.1,0,0.2-0.1,0.3
			c-0.1,0.1-0.1,0.2-0.3,0.2s-0.2,0.1-0.4,0.1c-0.2,0-0.3,0-0.4-0.1s-0.2-0.2-0.3-0.3s-0.2-0.3-0.3-0.5l-0.6-1
			c-0.2-0.4-0.4-0.6-0.6-0.8c-0.2-0.2-0.3-0.3-0.5-0.4C21,69,20.8,68.9,20.5,68.9z M21.4,65.8H20v2h1.3c0.4,0,0.7,0,0.9-0.1
			c0.2-0.1,0.4-0.2,0.6-0.3c0.1-0.1,0.2-0.4,0.2-0.6c0-0.2-0.1-0.4-0.2-0.5c-0.1-0.2-0.2-0.3-0.4-0.3C22.2,65.9,21.9,65.8,21.4,65.8
			z"/>
		<path class="st2" d="M30.7,69.4c0,0.4-0.1,0.8-0.2,1.1c-0.1,0.3-0.3,0.6-0.6,0.9c-0.2,0.2-0.5,0.4-0.9,0.6
			c-0.3,0.1-0.7,0.2-1.1,0.2c-0.4,0-0.8-0.1-1.1-0.2c-0.3-0.1-0.6-0.3-0.9-0.6c-0.2-0.2-0.4-0.5-0.6-0.9c-0.1-0.3-0.2-0.7-0.2-1.1
			c0-0.4,0.1-0.8,0.2-1.1c0.1-0.3,0.3-0.6,0.5-0.9c0.2-0.2,0.5-0.4,0.9-0.6c0.3-0.1,0.7-0.2,1.1-0.2c0.4,0,0.8,0.1,1.1,0.2
			c0.3,0.1,0.6,0.3,0.9,0.6c0.2,0.2,0.4,0.5,0.6,0.9C30.7,68.6,30.7,69,30.7,69.4z M29.3,69.4c0-0.6-0.1-1-0.4-1.3
			c-0.2-0.3-0.6-0.5-1-0.5c-0.3,0-0.5,0.1-0.7,0.2c-0.2,0.1-0.4,0.3-0.5,0.6c-0.1,0.3-0.2,0.6-0.2,1c0,0.4,0.1,0.7,0.2,0.9
			c0.1,0.3,0.3,0.5,0.5,0.6c0.2,0.1,0.4,0.2,0.7,0.2c0.4,0,0.7-0.2,1-0.5C29.2,70.4,29.3,70,29.3,69.4z"/>
		<path class="st2" d="M32.9,72.4l0.1-0.3l-1.7-4.3c-0.1-0.2-0.2-0.4-0.2-0.5c0-0.1,0-0.2,0.1-0.3c0.1-0.1,0.1-0.2,0.2-0.2
			c0.1-0.1,0.2-0.1,0.3-0.1c0.2,0,0.3,0.1,0.4,0.2c0.1,0.1,0.2,0.3,0.3,0.5l1.2,3.4l1.1-3.1c0.1-0.3,0.2-0.5,0.2-0.6
			c0.1-0.1,0.1-0.2,0.2-0.3c0.1-0.1,0.2-0.1,0.3-0.1c0.1,0,0.2,0,0.3,0.1c0.1,0.1,0.2,0.1,0.2,0.2c0.1,0.1,0.1,0.2,0.1,0.3
			c0,0.1,0,0.2-0.1,0.3c0,0.1-0.1,0.2-0.1,0.4l-1.8,4.7c-0.2,0.4-0.3,0.7-0.5,1c-0.1,0.2-0.3,0.4-0.6,0.5c-0.2,0.1-0.6,0.2-1,0.2
			c-0.4,0-0.7,0-0.9-0.1c-0.2-0.1-0.3-0.2-0.3-0.5c0-0.2,0-0.3,0.1-0.4c0.1-0.1,0.2-0.1,0.4-0.1c0.1,0,0.1,0,0.2,0
			c0.1,0,0.2,0,0.2,0c0.2,0,0.3,0,0.4-0.1c0.1,0,0.2-0.1,0.2-0.2C32.8,72.8,32.8,72.6,32.9,72.4z"/>
		<path class="st2" d="M40.6,71.4c-0.3,0.3-0.7,0.5-1,0.6c-0.3,0.1-0.7,0.2-1,0.2c-0.4,0-0.7-0.1-0.9-0.2c-0.3-0.1-0.5-0.3-0.6-0.6
			c-0.1-0.2-0.2-0.5-0.2-0.8c0-0.4,0.1-0.7,0.4-1c0.2-0.3,0.6-0.4,1-0.5c0.1,0,0.3-0.1,0.6-0.1c0.3-0.1,0.6-0.1,0.9-0.2
			c0.2-0.1,0.5-0.1,0.8-0.2c0-0.4-0.1-0.6-0.2-0.8c-0.1-0.2-0.4-0.3-0.8-0.3c-0.3,0-0.6,0-0.8,0.1s-0.3,0.2-0.5,0.4
			c-0.1,0.2-0.2,0.3-0.3,0.4c-0.1,0.1-0.2,0.1-0.3,0.1c-0.2,0-0.3,0-0.4-0.1c-0.1-0.1-0.2-0.2-0.2-0.4c0-0.2,0.1-0.5,0.3-0.7
			c0.2-0.2,0.4-0.4,0.8-0.6c0.4-0.1,0.8-0.2,1.4-0.2c0.6,0,1.1,0.1,1.4,0.2c0.3,0.1,0.6,0.4,0.7,0.7c0.1,0.3,0.2,0.7,0.2,1.2
			c0,0.3,0,0.6,0,0.8c0,0.2,0,0.5,0,0.8c0,0.3,0,0.5,0.1,0.8c0.1,0.3,0.1,0.5,0.1,0.5c0,0.1-0.1,0.3-0.2,0.4
			c-0.1,0.1-0.3,0.2-0.5,0.2c-0.1,0-0.3-0.1-0.4-0.2C40.9,71.9,40.7,71.7,40.6,71.4z M40.5,69.5c-0.2,0.1-0.5,0.2-0.9,0.2
			c-0.4,0.1-0.7,0.1-0.8,0.2c-0.1,0-0.3,0.1-0.4,0.2c-0.1,0.1-0.2,0.3-0.2,0.5c0,0.2,0.1,0.4,0.2,0.5c0.2,0.1,0.4,0.2,0.6,0.2
			c0.3,0,0.5-0.1,0.8-0.2c0.2-0.1,0.4-0.3,0.5-0.5c0.1-0.2,0.2-0.6,0.2-1V69.5z"/>
		<path class="st2" d="M43.2,71.4v-6c0-0.3,0.1-0.5,0.2-0.6c0.1-0.1,0.3-0.2,0.5-0.2c0.2,0,0.4,0.1,0.5,0.2c0.1,0.1,0.2,0.3,0.2,0.6
			v6c0,0.3-0.1,0.5-0.2,0.6c-0.1,0.1-0.3,0.2-0.5,0.2c-0.2,0-0.4-0.1-0.5-0.2C43.3,71.9,43.2,71.6,43.2,71.4z"/>
		<path class="st2" d="M50.7,68.9h-0.5v2.4c0,0.3-0.1,0.5-0.2,0.7s-0.3,0.2-0.5,0.2c-0.2,0-0.4-0.1-0.6-0.2
			c-0.1-0.2-0.2-0.4-0.2-0.7v-5.7c0-0.3,0.1-0.6,0.2-0.7c0.1-0.1,0.4-0.2,0.7-0.2H52c0.3,0,0.6,0,0.9,0c0.2,0,0.5,0.1,0.6,0.2
			c0.2,0.1,0.4,0.2,0.6,0.4c0.2,0.2,0.3,0.4,0.4,0.6c0.1,0.2,0.1,0.5,0.1,0.8c0,0.6-0.2,1-0.5,1.3c-0.3,0.3-0.8,0.6-1.4,0.7
			c0.3,0.1,0.5,0.3,0.8,0.6s0.5,0.6,0.6,0.9c0.2,0.3,0.3,0.6,0.4,0.8c0.1,0.3,0.2,0.4,0.2,0.5c0,0.1,0,0.2-0.1,0.3
			c-0.1,0.1-0.1,0.2-0.3,0.2s-0.2,0.1-0.4,0.1c-0.2,0-0.3,0-0.4-0.1c-0.1-0.1-0.2-0.2-0.3-0.3c-0.1-0.1-0.2-0.3-0.3-0.5l-0.6-1
			c-0.2-0.4-0.4-0.6-0.6-0.8c-0.2-0.2-0.3-0.3-0.5-0.4C51.2,69,51,68.9,50.7,68.9z M51.6,65.8h-1.4v2h1.3c0.4,0,0.7,0,0.9-0.1
			c0.2-0.1,0.4-0.2,0.6-0.3c0.1-0.1,0.2-0.4,0.2-0.6c0-0.2-0.1-0.4-0.2-0.5c-0.1-0.2-0.2-0.3-0.4-0.3C52.4,65.9,52.1,65.8,51.6,65.8
			z"/>
		<path class="st2" d="M59.6,69.8h-2.7c0,0.3,0.1,0.6,0.2,0.8c0.1,0.2,0.3,0.4,0.5,0.5c0.2,0.1,0.4,0.2,0.7,0.2c0.2,0,0.3,0,0.5-0.1
			c0.1,0,0.3-0.1,0.4-0.2c0.1-0.1,0.2-0.2,0.4-0.3c0.1-0.1,0.2-0.2,0.4-0.4c0.1-0.1,0.2-0.1,0.3-0.1c0.1,0,0.3,0,0.3,0.1
			c0.1,0.1,0.1,0.2,0.1,0.3c0,0.1,0,0.3-0.1,0.4c-0.1,0.2-0.2,0.3-0.4,0.5c-0.2,0.2-0.4,0.3-0.7,0.4c-0.3,0.1-0.6,0.2-1,0.2
			c-0.9,0-1.6-0.3-2.1-0.8c-0.5-0.5-0.7-1.2-0.7-2c0-0.4,0.1-0.8,0.2-1.1c0.1-0.3,0.3-0.6,0.5-0.9c0.2-0.2,0.5-0.4,0.9-0.6
			c0.3-0.1,0.7-0.2,1.1-0.2c0.5,0,1,0.1,1.4,0.3c0.4,0.2,0.7,0.5,0.9,0.9c0.2,0.4,0.3,0.7,0.3,1.1c0,0.3-0.1,0.6-0.3,0.7
			C60.2,69.7,60,69.8,59.6,69.8z M56.9,69h2.5c0-0.5-0.2-0.8-0.4-1.1c-0.2-0.2-0.5-0.3-0.9-0.3c-0.3,0-0.6,0.1-0.8,0.4
			S57,68.5,56.9,69z"/>
		<path class="st2" d="M66.3,70.4c0,0.4-0.1,0.7-0.3,1c-0.2,0.3-0.5,0.5-0.8,0.6c-0.4,0.1-0.8,0.2-1.3,0.2c-0.5,0-0.9-0.1-1.3-0.2
			c-0.4-0.2-0.6-0.3-0.8-0.6c-0.2-0.2-0.3-0.5-0.3-0.7c0-0.2,0.1-0.3,0.2-0.4c0.1-0.1,0.2-0.2,0.4-0.2c0.1,0,0.3,0,0.3,0.1
			c0.1,0.1,0.2,0.2,0.2,0.3c0.1,0.2,0.3,0.4,0.5,0.5c0.2,0.1,0.5,0.2,0.8,0.2c0.3,0,0.5-0.1,0.7-0.2c0.2-0.1,0.3-0.3,0.3-0.4
			c0-0.2-0.1-0.4-0.3-0.5c-0.2-0.1-0.5-0.2-0.9-0.3c-0.5-0.1-0.9-0.2-1.2-0.4c-0.3-0.1-0.5-0.3-0.7-0.5c-0.2-0.2-0.3-0.5-0.3-0.8
			c0-0.3,0.1-0.5,0.2-0.8c0.2-0.2,0.4-0.4,0.7-0.6s0.7-0.2,1.2-0.2c0.4,0,0.7,0,1,0.1c0.3,0.1,0.5,0.2,0.7,0.3
			c0.2,0.1,0.3,0.3,0.4,0.4c0.1,0.2,0.1,0.3,0.1,0.4c0,0.2-0.1,0.3-0.2,0.4c-0.1,0.1-0.3,0.2-0.5,0.2c-0.1,0-0.3,0-0.4-0.1
			c-0.1-0.1-0.2-0.2-0.3-0.4c-0.1-0.1-0.2-0.2-0.4-0.3c-0.1-0.1-0.3-0.1-0.6-0.1c-0.2,0-0.5,0.1-0.6,0.2c-0.2,0.1-0.2,0.2-0.2,0.4
			c0,0.1,0.1,0.3,0.2,0.4c0.1,0.1,0.3,0.2,0.5,0.2c0.2,0.1,0.5,0.1,0.8,0.2c0.4,0.1,0.8,0.2,1,0.4c0.3,0.1,0.5,0.3,0.6,0.5
			C66.3,69.9,66.3,70.2,66.3,70.4z"/>
		<path class="st2" d="M72.6,69.4c0,0.4-0.1,0.8-0.2,1.1c-0.1,0.3-0.3,0.6-0.6,0.9c-0.2,0.2-0.5,0.4-0.9,0.6
			c-0.3,0.1-0.7,0.2-1.1,0.2c-0.4,0-0.8-0.1-1.1-0.2c-0.3-0.1-0.6-0.3-0.9-0.6c-0.2-0.2-0.4-0.5-0.6-0.9c-0.1-0.3-0.2-0.7-0.2-1.1
			c0-0.4,0.1-0.8,0.2-1.1c0.1-0.3,0.3-0.6,0.5-0.9c0.2-0.2,0.5-0.4,0.9-0.6c0.3-0.1,0.7-0.2,1.1-0.2c0.4,0,0.8,0.1,1.1,0.2
			c0.3,0.1,0.6,0.3,0.9,0.6c0.2,0.2,0.4,0.5,0.6,0.9C72.6,68.6,72.6,69,72.6,69.4z M71.3,69.4c0-0.6-0.1-1-0.4-1.3
			c-0.2-0.3-0.6-0.5-1-0.5c-0.3,0-0.5,0.1-0.7,0.2c-0.2,0.1-0.4,0.3-0.5,0.6c-0.1,0.3-0.2,0.6-0.2,1c0,0.4,0.1,0.7,0.2,0.9
			c0.1,0.3,0.3,0.5,0.5,0.6c0.2,0.1,0.4,0.2,0.7,0.2c0.4,0,0.7-0.2,1-0.5C71.1,70.4,71.3,70,71.3,69.4z"/>
		<path class="st2" d="M75.1,70.2v1.1c0,0.3-0.1,0.5-0.2,0.6c-0.1,0.1-0.3,0.2-0.5,0.2c-0.2,0-0.4-0.1-0.5-0.2
			c-0.1-0.1-0.2-0.3-0.2-0.6v-3.8c0-0.6,0.2-0.9,0.7-0.9c0.2,0,0.4,0.1,0.5,0.2C75,67,75,67.2,75,67.5c0.2-0.3,0.3-0.5,0.5-0.6
			c0.2-0.1,0.4-0.2,0.7-0.2c0.3,0,0.6,0.1,0.8,0.2c0.3,0.1,0.4,0.3,0.4,0.6c0,0.2-0.1,0.3-0.2,0.4c-0.1,0.1-0.2,0.2-0.4,0.2
			c-0.1,0-0.2,0-0.4-0.1c-0.2-0.1-0.4-0.1-0.5-0.1c-0.2,0-0.4,0.1-0.5,0.2c-0.1,0.1-0.2,0.3-0.3,0.5c-0.1,0.2-0.1,0.5-0.1,0.7
			C75.1,69.5,75.1,69.8,75.1,70.2z"/>
		<path class="st2" d="M78.4,66.7h0.2v-0.8c0-0.2,0-0.4,0-0.5c0-0.1,0-0.2,0.1-0.3c0.1-0.1,0.1-0.2,0.2-0.2c0.1-0.1,0.2-0.1,0.3-0.1
			c0.2,0,0.3,0.1,0.5,0.2c0.1,0.1,0.2,0.2,0.2,0.3c0,0.1,0,0.3,0,0.5v0.9h0.5c0.2,0,0.3,0,0.4,0.1c0.1,0.1,0.2,0.2,0.2,0.4
			c0,0.2-0.1,0.3-0.2,0.4s-0.4,0.1-0.6,0.1H80v2.5c0,0.2,0,0.4,0,0.5c0,0.1,0.1,0.2,0.1,0.3c0.1,0.1,0.2,0.1,0.3,0.1
			c0.1,0,0.2,0,0.3,0c0.1,0,0.2,0,0.3,0c0.1,0,0.2,0,0.3,0.1c0.1,0.1,0.1,0.2,0.1,0.3c0,0.2-0.1,0.4-0.4,0.5c-0.2,0.1-0.6,0.2-1,0.2
			c-0.4,0-0.8-0.1-1-0.2c-0.2-0.1-0.4-0.3-0.4-0.6c-0.1-0.3-0.1-0.6-0.1-1v-2.6h-0.2c-0.2,0-0.3,0-0.5-0.1c-0.1-0.1-0.2-0.2-0.2-0.4
			s0.1-0.3,0.2-0.4C78.1,66.8,78.2,66.7,78.4,66.7z"/>
	</g>
</g>
</svg>
